PathFileType	4	(X/Y/Z)	D:\Documents\paper\Opensim\Pipline\Result\suihongtao\30DJ0001\original_data\suihongtao_30DJ0001_static.trc	
DataRate	CameraRate	NumFrames	NumMarkers	Units	OrigDataRate	OrigDataStartFrame	OrigNumFrames	
200	200	11	27	mm	200	277	1108	
Frame#	Time	Top.Head			L.Acromium			R.Acromium			Sternum			L.ASIS			R.ASIS			L.PSIS			R.PSIS			V.Sacral			L.Thigh.Front			L.Knee.Lat			L.Knee.Med			L.Shank.Front			L.Ankle.Lat			L.Ankle.Med			L.Heel			L.Toe.Lat			L.Toe.Tip			R.Thigh.Front			R.Knee.Lat			R.Knee.Med			R.Shank.Front			R.Ankle.Lat			R.Ankle.Med			R.Heel			R.Toe.Lat			R.Toe.Tip
		X1	Y1	Z1	X2	Y2	Z2	X3	Y3	Z3	X4	Y4	Z4	X5	Y5	Z5	X6	Y6	Z6	X7	Y7	Z7	X8	Y8	Z8	X9	Y9	Z9	X10	Y10	Z10	X11	Y11	Z11	X12	Y12	Z12	X13	Y13	Z13	X14	Y14	Z14	X15	Y15	Z15	X16	Y16	Z16	X17	Y17	Z17	X18	Y18	Z18	X19	Y19	Z19	X20	Y20	Z20	X21	Y21	Z21	X22	Y22	Z22	X23	Y23	Z23	X24	Y24	Z24	X25	Y25	Z25	X26	Y26	Z26	X27	Y27	Z27
278	1.385000	348.477704	1627.868315	-779.565235	203.338806	1313.735195	-649.601704	488.442264	1308.866670	-862.343304	295.440194	1302.495009	-833.266256	177.028177	892.474028	-763.209811	354.224427	893.186360	-917.085264	357.329558	911.059072	-664.920138	434.013911	905.989682	-723.628370	395.671992	908.524575	-694.274531	208.212087	536.231665	-758.872200	211.560395	447.731609	-638.265614	321.871638	424.428486	-701.744518	236.010562	379.233084	-696.343414	224.471685	86.581150	-617.209675	276.440598	102.759156	-684.289181	292.055544	48.051018	-599.032120	142.990967	32.726215	-694.629091	165.435751	55.336915	-758.143191	357.248341	527.817625	-857.150888	484.754711	441.758167	-834.795470	394.750177	423.383202	-749.896974	433.183966	375.497598	-828.149220	505.052277	89.803341	-811.262148	430.860607	99.864241	-774.218287	501.026719	44.814761	-728.479895	473.602090	34.729213	-903.160706	388.573101	49.437702	-902.616727	
279	1.390000	348.505163	1627.871585	-779.505412	203.330112	1313.745946	-649.609768	488.445202	1308.882076	-862.340200	295.440454	1302.521919	-833.268737	177.006379	892.479127	-763.222565	354.209850	893.184111	-917.085688	357.311161	911.055009	-664.925874	433.998775	905.985311	-723.637193	395.655258	908.520310	-694.281892	208.193516	536.231444	-758.879064	211.547523	447.720168	-638.278213	321.853658	424.426829	-701.752064	235.999690	379.225071	-696.346610	224.478256	86.579215	-617.210590	276.436557	102.749528	-684.284684	292.056978	48.053582	-599.032653	142.987608	32.722912	-694.625410	165.434338	55.328590	-758.139111	357.231893	527.811758	-857.155615	484.733719	441.751307	-834.795181	394.732793	423.373774	-749.900011	433.173761	375.489851	-828.151556	505.053337	89.806500	-811.260089	430.854591	99.863108	-774.217785	501.026313	44.821328	-728.474919	473.603645	34.728361	-903.157167	388.572285	49.429331	-902.609279	
280	1.395000	348.530849	1627.876084	-779.444309	203.318997	1313.759433	-649.618399	488.446866	1308.898398	-862.336000	295.440546	1302.549502	-833.270218	176.985353	892.483792	-763.233982	354.193335	893.183922	-917.086130	357.294718	911.055163	-664.933262	433.985148	905.985370	-723.644744	395.640225	908.520341	-694.289397	208.171989	536.235935	-758.888821	211.534319	447.710902	-638.289089	321.837062	424.424042	-701.760560	235.987694	379.218769	-696.350492	224.484911	86.582655	-617.208103	276.433761	102.736972	-684.279735	292.057516	48.060127	-599.032828	142.984914	32.720902	-694.622380	165.431162	55.324429	-758.136821	357.216340	527.805956	-857.158878	484.711283	441.745108	-834.796523	394.716304	423.358560	-749.899145	433.161090	375.479984	-828.151422	505.053297	89.814887	-811.260548	430.847687	99.861934	-774.217191	501.027427	44.827539	-728.471290	473.607805	34.732471	-903.153561	388.573423	49.426475	-902.602002	
281	1.400000	348.556031	1627.881457	-779.383251	203.305900	1313.776192	-649.628041	488.448364	1308.918134	-862.332462	295.440329	1302.579253	-833.271914	176.965984	892.489368	-763.245821	354.176134	893.186398	-917.088150	357.279227	911.058382	-664.941843	433.972873	905.988259	-723.649960	395.626278	908.523315	-694.296275	208.151351	536.243581	-758.902249	211.520246	447.707797	-638.299602	321.822892	424.423097	-701.772425	235.976308	379.217114	-696.357139	224.491583	86.589743	-617.206175	276.432838	102.730755	-684.278410	292.057315	48.069363	-599.033329	142.984049	32.720594	-694.621970	165.427196	55.325891	-758.138020	357.201782	527.801406	-857.162635	484.690037	441.740431	-834.800740	394.702110	423.344682	-749.897491	433.147151	375.470921	-828.150677	505.051352	89.824577	-811.263355	430.841015	99.860912	-774.216765	501.030020	44.831311	-728.470368	473.614077	34.739616	-903.151530	388.576541	49.428951	-902.597566	
282	1.405000	348.582155	1627.887305	-779.323290	203.292974	1313.795541	-649.638995	488.450243	1308.942230	-862.331072	295.439772	1302.611272	-833.274122	176.949215	892.496343	-763.259188	354.160412	893.191078	-917.092969	357.264465	911.064008	-664.950074	433.962095	905.991355	-723.652463	395.613366	908.527596	-694.301573	208.133580	536.251526	-758.918703	211.506748	447.712659	-638.310741	321.810374	424.424215	-701.787110	235.966673	379.220748	-696.367297	224.497180	86.599083	-617.207056	276.433251	102.734999	-684.282349	292.056923	48.079611	-599.034484	142.985261	32.722014	-694.624928	165.423429	55.331638	-758.142329	357.187970	527.798147	-857.168820	484.673168	441.736769	-834.807469	394.687286	423.338888	-749.899951	433.133535	375.465200	-828.152514	505.048668	89.832931	-811.266636	430.836194	99.859302	-774.215822	501.033677	44.833093	-728.472934	473.621213	34.747682	-903.151603	388.580721	49.434531	-902.596439	
283	1.410000	348.609508	1627.893094	-779.264416	203.282985	1313.815981	-649.650627	488.451697	1308.968828	-862.331875	295.439002	1302.644472	-833.276707	176.935504	892.503925	-763.273872	354.147365	893.196717	-917.100535	357.251151	911.071394	-664.955982	433.953075	905.993301	-723.652716	395.602034	908.532184	-694.304557	208.118228	536.256542	-758.935537	211.496303	447.724043	-638.321845	321.798364	424.425026	-701.801487	235.958639	379.227891	-696.379516	224.500064	86.609127	-617.210778	276.433757	102.746211	-684.290479	292.056783	48.089344	-599.035731	142.987778	32.724629	-694.630318	165.420909	55.338418	-758.147997	357.175427	527.795499	-857.177207	484.662442	441.733881	-834.815036	394.671538	423.340506	-749.906675	433.121433	375.463331	-828.158481	505.047482	89.839051	-811.268127	430.834782	99.855755	-774.212765	501.037432	44.835277	-728.477830	473.627655	34.754704	-903.152551	388.584982	49.441200	-902.597741	
284	1.415000	348.636676	1627.898339	-779.205946	203.276259	1313.836292	-649.661288	488.451570	1308.994688	-862.333382	295.438041	1302.678020	-833.279362	176.924281	892.510843	-763.288886	354.136438	893.201960	-917.109645	357.239836	911.079509	-664.958744	433.945128	905.994746	-723.651727	395.592307	908.536917	-694.305333	208.104110	536.257778	-758.949299	211.489803	447.737694	-638.331310	321.786478	424.424284	-701.813205	235.951893	379.235774	-696.391048	224.499849	86.617947	-617.215535	276.433765	102.756772	-684.299474	292.057212	48.096663	-599.035988	142.990895	32.727302	-694.635792	165.420270	55.343505	-758.152962	357.164645	527.793671	-857.185556	484.657036	441.731764	-834.821343	394.658171	423.343887	-749.915155	433.111338	375.463902	-828.166959	505.049085	89.842724	-811.266748	430.836903	99.849830	-774.207264	501.040329	44.839495	-728.482460	473.631506	34.759809	-903.152674	388.588211	49.447791	-902.600532	
285	1.420000	348.661659	1627.902952	-779.147541	203.269488	1313.856307	-649.669264	488.449763	1309.017667	-862.333842	295.436844	1302.711703	-833.281461	176.914120	892.516787	-763.303273	354.126278	893.205807	-917.118699	357.230164	911.086709	-664.959049	433.937367	905.997124	-723.650534	395.583607	908.541710	-694.304786	208.090735	536.257557	-758.957756	211.485505	447.748940	-638.338075	321.775097	424.423256	-701.821975	235.946604	379.241984	-696.399700	224.497652	86.624126	-617.218459	276.433537	102.760146	-684.304858	292.058464	48.100141	-599.034634	142.994548	32.729380	-694.638907	165.421126	55.346089	-758.155426	357.154628	527.794271	-857.192351	484.654193	441.730887	-834.825156	394.649216	423.344859	-749.924832	433.103056	375.465370	-828.174714	505.052635	89.844761	-811.263018	430.840764	99.843314	-774.201322	501.042132	44.845103	-728.484607	473.630799	34.763422	-903.151201	388.589491	49.453816	-902.604214	
286	1.425000	348.683691	1627.907200	-779.089212	203.258741	1313.876692	-649.674423	488.447060	1309.037755	-862.332615	295.434912	1302.745283	-833.282692	176.903576	892.522707	-763.316243	354.116216	893.207921	-917.125831	357.221104	911.091849	-664.957488	433.929805	906.001080	-723.649963	395.575395	908.546299	-694.303652	208.078647	536.258605	-758.960782	211.481045	447.754941	-638.342635	321.765161	424.422844	-701.827576	235.942336	379.245461	-696.404769	224.495030	86.628169	-617.217293	276.433102	102.754521	-684.303872	292.060168	48.100217	-599.032172	142.998530	32.731276	-694.638731	165.422359	55.347288	-758.154496	357.143749	527.798123	-857.197799	484.650757	441.732724	-834.826702	394.643300	423.342684	-749.935906	433.095883	375.467344	-828.179644	505.055674	89.847351	-811.258993	430.844238	99.839031	-774.197042	501.042979	44.850655	-728.483355	473.625209	34.766404	-903.148602	388.588559	49.458783	-902.608200	
287	1.430000	348.703605	1627.911286	-779.030700	203.242560	1313.898097	-649.678864	488.444146	1309.056134	-862.330183	295.431298	1302.778189	-833.283612	176.891742	892.529625	-763.327310	354.106550	893.208727	-917.129467	357.212016	911.095594	-664.954785	433.922752	906.006106	-723.650299	395.567444	908.550754	-694.302459	208.068807	536.261612	-758.960467	211.475437	447.755806	-638.346902	321.757701	424.422254	-701.829454	235.937550	379.246596	-696.407183	224.492913	86.632049	-617.212474	276.432297	102.743945	-684.297361	292.061286	48.099009	-599.029825	143.001806	32.733657	-694.636460	165.423101	55.348799	-758.151190	357.131763	527.804524	-857.203159	484.645160	441.738218	-834.827187	394.637696	423.338266	-749.947081	433.089175	375.470345	-828.182145	505.055683	89.852105	-811.257438	430.846244	99.839138	-774.194461	501.042768	44.855406	-728.479477	473.617200	34.769643	-903.146251	388.585607	49.461864	-902.611618	
288	1.435000	348.722784	1627.914959	-778.972049	203.221786	1313.920480	-649.684820	488.441475	1309.073804	-862.327427	295.425832	1302.809849	-833.285017	176.878301	892.537985	-763.336965	354.098098	893.209310	-917.129642	357.203527	911.099538	-664.952988	433.915836	906.010630	-723.651356	395.559841	908.555071	-694.302138	208.061599	536.266171	-758.960637	211.469226	447.754196	-638.352525	321.752886	424.421413	-701.828688	235.931140	379.246185	-696.409236	224.490982	86.637121	-617.206997	276.431407	102.734850	-684.288633	292.060911	48.099047	-599.028782	143.003078	32.736556	-694.634169	165.422868	55.350968	-758.148202	357.120598	527.812759	-857.210009	484.637995	441.746088	-834.827711	394.632287	423.332283	-749.955191	433.082767	375.474882	-828.183931	505.051544	89.858327	-811.259866	430.846463	99.843992	-774.193096	501.041300	44.858857	-728.475179	473.610375	34.773709	-903.145269	388.581400	49.463098	-902.613544	
